<svg width="31" height="31" viewBox="0 0 31 31" fill="none" xmlns="http://www.w3.org/2000/svg">
<path fill-rule="evenodd" clip-rule="evenodd" d="M31 15.5C31 24.0604 24.0604 31 15.5 31C6.93959 31 0 24.0604 0 15.5C0 6.93959 6.93959 0 15.5 0C24.0604 0 31 6.93959 31 15.5ZM22.0371 9.40204L7.09254 15.1642C6.06825 15.5646 6.08633 16.1316 6.91687 16.3951L10.7428 17.5886L19.6178 12.0009C20.0299 11.727 20.4122 11.882 20.0996 12.1572L12.918 18.6452L12.6428 22.5887C13.0433 22.5887 13.2176 22.4143 13.4243 22.2076L15.2933 20.407L19.1683 23.2629C19.8749 23.6633 20.3799 23.4567 20.5685 22.6068L23.1131 10.6188L23.1118 10.6201C23.3365 9.57125 22.7308 9.15146 22.0371 9.40204Z" fill="white"/>
</svg>
