<svg width="31" height="31" viewBox="0 0 31 31" fill="none" xmlns="http://www.w3.org/2000/svg">
<g clip-path="url(#clip0_45_4631)">
<path fill-rule="evenodd" clip-rule="evenodd" d="M15.4961 0H15.5039C24.0502 0 31 6.95369 31 15.5C31 24.0463 24.0502 31 15.5039 31C12.3516 31 9.42788 30.0623 6.97694 28.4386L1.01912 30.3432L2.95081 24.5849C1.09275 22.0333 0 18.8906 0 15.5C0 6.95175 6.94981 0 15.4961 0ZM21.4811 24.0753C22.6649 23.8195 24.149 22.9438 24.5229 21.8879C24.8969 20.83 24.8969 19.929 24.7884 19.7372C24.7008 19.585 24.4936 19.4853 24.1843 19.3364C24.1038 19.2976 24.0164 19.2555 23.9223 19.2083C23.467 18.9816 21.2524 17.8869 20.8339 17.7416C20.4232 17.5866 20.0318 17.6409 19.7218 18.0787C19.6629 18.1613 19.604 18.244 19.5455 18.3263C19.1715 18.8523 18.8108 19.3596 18.5109 19.683C18.2377 19.9736 17.7921 20.0104 17.4181 19.8554C17.3774 19.8384 17.3307 19.8196 17.2783 19.7984C16.6862 19.5593 15.373 19.0289 13.7834 17.6137C12.4426 16.4202 11.532 14.9342 11.2685 14.4885C11.0098 14.0415 11.233 13.7794 11.4392 13.5371C11.443 13.5326 11.4468 13.5281 11.4506 13.5237C11.5836 13.3591 11.7126 13.2221 11.8423 13.0845C11.9356 12.9854 12.0292 12.886 12.1249 12.7758C12.1391 12.7594 12.1529 12.7435 12.1664 12.7281C12.3695 12.4945 12.4904 12.3555 12.6267 12.0647C12.7817 11.7644 12.6713 11.4544 12.5608 11.2258C12.4848 11.0657 12.0155 9.92683 11.6125 8.94918C11.4401 8.53082 11.2798 8.14198 11.1678 7.87198C10.8674 7.15317 10.6388 7.12604 10.1835 7.10667C10.1696 7.10597 10.1555 7.10526 10.1412 7.10454C9.99732 7.09725 9.83881 7.08923 9.66426 7.08923C9.07139 7.08923 8.45332 7.26361 8.07939 7.64529C8.06632 7.65864 8.0527 7.67249 8.03856 7.68687C7.56017 8.1734 6.49451 9.25719 6.49451 11.4176C6.49451 13.5822 8.03037 15.6771 8.31455 16.0647C8.32238 16.0754 8.32926 16.0847 8.33514 16.0928C8.35223 16.1153 8.38446 16.1619 8.43137 16.2299C9.01162 17.0701 11.8378 21.1629 16.0522 22.9089C19.6133 24.3853 20.6712 24.2477 21.4811 24.0753Z" fill="#FAFAFA"/>
</g>
<defs>
<clipPath id="clip0_45_4631">
<rect width="31" height="31" fill="white"/>
</clipPath>
</defs>
</svg>
