<svg width="35" height="35" viewBox="0 0 35 35" fill="none" xmlns="http://www.w3.org/2000/svg">
<path d="M34.076 2.59886C33.3438 1.98825 32.3374 1.83112 31.4555 2.18967L1.59372 14.3131C0.280132 14.8568 -0.346397 16.3685 0.194276 17.6893C0.47392 18.3725 1.03056 18.9027 1.72393 19.1465L8.16601 21.3986L11.6572 33.0065C11.6643 33.0301 11.6858 33.0445 11.6949 33.0673C11.731 33.1598 11.7838 33.245 11.8504 33.3185C11.8752 33.3481 11.9023 33.3758 11.9312 33.4014C12.0182 33.474 12.1192 33.5277 12.2278 33.559C12.2444 33.5639 12.2555 33.5787 12.2724 33.5826L12.2821 33.5822L12.287 33.5843C12.3427 33.5967 12.3994 33.6028 12.4563 33.6023C12.5307 33.5996 12.6044 33.5867 12.6752 33.5639C12.6889 33.5601 12.7028 33.5611 12.7162 33.5566C12.8372 33.5138 12.9464 33.4433 13.0354 33.3506C13.0458 33.3402 13.0616 33.3383 13.0715 33.3273L18.0943 27.7541L25.4219 33.4599C25.8671 33.8099 26.416 34.0001 26.9811 34C28.2034 33.9998 29.2585 33.1388 29.5104 31.9361L34.9484 5.09C35.1368 4.16135 34.8014 3.20385 34.076 2.59886ZM13.4802 23.6001L12.3015 29.3602L9.84337 21.1848L22.0349 14.8008L13.7064 23.1761C13.5913 23.292 13.5126 23.4395 13.4802 23.6001ZM27.878 31.5989C27.8141 31.9074 27.5952 32.1604 27.3002 32.2667C27.0119 32.3782 26.6864 32.3285 26.4441 32.1357L18.5046 25.9537C18.1609 25.6861 17.6703 25.7296 17.3783 26.0536L13.8855 29.9289L15.0622 24.1844L27.0431 12.1346C27.3687 11.8078 27.3692 11.2774 27.0442 10.9501C26.7871 10.691 26.3925 10.6298 26.0697 10.799L8.79743 19.844L2.26918 17.5621C1.91334 17.4443 1.67133 17.1122 1.66696 16.7355C1.64977 16.3562 1.87306 16.0075 2.2236 15.8664L32.0805 3.74459C32.3924 3.6115 32.7523 3.66725 33.0099 3.88863C33.2662 4.0967 33.384 4.43234 33.3143 4.75611L27.878 31.5989Z" fill="#464A50"/>
</svg>
