<svg width="178" height="98" viewBox="0 0 178 98" fill="none" xmlns="http://www.w3.org/2000/svg">
<path fill-rule="evenodd" clip-rule="evenodd" d="M35.2103 3.66418L3.1704 22.0889L35.2103 40.479L41.5348 36.8494L35.2103 33.2197L25.5149 27.6543L15.8195 22.0889L35.2103 10.958L44.9056 16.5234L54.601 22.0889L60.9256 25.7185L67.2501 22.0889L35.2103 3.66418ZM0.459869 26.7555V63.5704L32.4997 81.9605V74.7012L26.1752 71.0716L16.4798 65.5062L6.78444 59.9407V37.6444L16.4798 43.2099L26.1752 48.7753L32.4997 52.4049V45.1457L0.459869 26.7555ZM69.9607 26.7555L37.9208 45.1457V52.4049L44.2454 48.7753L54.8095 42.7259L63.6708 37.6444V45.1457L50.8132 52.5432V59.8025L57.1378 56.1728L63.6708 52.4049V59.9062L54.8095 64.9876L44.2454 71.037L37.9208 74.6666V81.9259L69.9607 63.5358V26.7555Z" fill="white"/>
<path fill-rule="evenodd" clip-rule="evenodd" d="M127.994 67.5457V59.5605H119.966V67.5457H127.994ZM112.738 62.1877V59.5605H104.711V62.1877H112.738ZM173.725 46.8049V38.8198H165.698V46.8049H173.725ZM143.249 41.4469V38.8198H135.222V41.4469H143.249ZM168.339 59.5605H162.953V56.8296H176.436V59.5605H171.05V70.2766H168.304V59.5605H168.339ZM150.477 62.1877L157.566 56.8296H161.424L152.736 63.2938L161.424 70.242H157.219L150.512 64.884V70.242H147.767V56.8296H150.512V62.1877H150.477ZM135.222 59.5605V62.1877H142.38V64.9185H135.222V67.5457H145.995V70.2766H132.477V56.8642H145.96V59.5951H135.222V59.5605ZM117.221 70.2766V56.8642H130.739V70.2766H117.221ZM104.711 64.9185V70.2766H101.966V56.8642H115.449V64.9531H104.711V64.9185ZM97.483 59.5605H89.4556V70.2766H86.7103V56.8642H100.194V70.2766H97.4482V59.5605H97.483ZM162.987 49.5358V36.1235H176.471V49.5358H162.987ZM150.477 38.8198V49.5358H147.732V36.1235H161.215V38.8543H150.477V38.8198ZM135.222 44.1778V49.5358H132.477V36.1235H145.96V44.2124H135.222V44.1778ZM119.966 38.8198V41.4469H127.125V44.1778H119.966V46.8049H130.739V49.5358H117.256V36.1235H130.739V38.8543H119.966V38.8198ZM104.711 41.4469H112.738V36.0889H115.484V49.5012H112.738V44.1432H104.711V49.5012H101.966V36.0889H104.711V41.4469ZM97.483 46.8049V44.1778H88.5174V41.4469H97.483V38.8198H86.7103V36.0889H100.194V49.5012H86.7103V46.7704H97.483V46.8049Z" fill="white"/>
<path fill-rule="evenodd" clip-rule="evenodd" d="M165.698 24.5432L173.899 15.3482H176.471V28.7605H173.725V19.4963L165.524 28.7951H162.953V15.3482H165.698V24.5432ZM172.891 10.4395V13.1704H166.567V10.4395C168.652 10.4395 170.772 10.4395 172.891 10.4395Z" fill="white"/>
<path fill-rule="evenodd" clip-rule="evenodd" d="M154.682 26.0642V18.079H146.655V26.0642H154.682ZM143.91 28.7605V15.3481H157.393V28.7605H143.91Z" fill="white"/>
<path fill-rule="evenodd" clip-rule="evenodd" d="M135.604 20.7062V18.079H127.577V20.7062H135.604ZM127.577 23.4025V28.7605H124.832V15.3481H138.315V23.437H127.577V23.4025Z" fill="white"/>
<path fill-rule="evenodd" clip-rule="evenodd" d="M111.175 18.079H105.788V15.3481H119.306V18.079H113.92V28.7605H111.175V18.079Z" fill="white"/>
<path fill-rule="evenodd" clip-rule="evenodd" d="M97.483 18.079H89.4556V26.0642H97.483V24.2667H100.228V28.7605H86.7451V15.3481H100.228V19.842H97.483V18.079Z" fill="white"/>
<path d="M0.842125 94.3358H4.14341V93.679H1.50238V91.7086H4.14341V91.0518H0.842125V94.3358Z" fill="white"/>
<path d="M7.4447 91.7086H8.76522V94.3358H9.46022V91.7086H10.7807V91.0518H7.4447V91.7086Z" fill="white"/>
<path d="M14.082 94.3358V91.0518H17.3833V93.0222H15.055V92.3654H16.7231V91.7086H14.7423V94.3358H14.082Z" fill="white"/>
<path d="M21.3449 93.679V91.7086H23.3256V93.679H21.3449ZM23.9859 94.3358V91.0518H20.6846V94.3358H23.9859Z" fill="white"/>
<path d="M27.9474 91.0518V93.3333L29.9282 91.0518H30.5885V94.3358H29.9282V92.0198L27.9474 94.3358H27.2872V91.0518H27.9474Z" fill="white"/>
<path d="M33.9245 91.7086H35.245V94.3358H35.9053V91.7086H37.2258V91.0518H33.9245V91.7086Z" fill="white"/>
<path d="M41.5001 92.3654H43.8284V93.0222H41.5001V92.3654ZM40.5271 91.0518H43.8284V91.7086H41.1873V93.679H43.8284V94.3358H40.5271V91.0518Z" fill="white"/>
<path d="M48.4502 91.0518H49.1104L50.4309 94.3358H49.7012L48.7977 92.0543L47.8942 94.3358H47.1297L48.4502 91.0518Z" fill="white"/>
<path d="M53.767 91.0518V94.3358H57.0683V92.3654H54.74V93.0222H56.408V93.679H54.4272V91.0518H53.767Z" fill="white"/>
<path d="M60.3696 94.3358H63.6708V93.679H61.0298V91.7086H63.6708V91.0518H60.3696V94.3358Z" fill="white"/>
<path d="M66.9721 91.7086H68.2927V94.3358H68.9529V91.7086H70.2734V91.0518H66.9721V91.7086Z" fill="white"/>
<path d="M76.2505 92.3654H74.5825V93.0222H76.2505V93.679H74.2697V91.7086H76.2505V92.3654ZM73.5747 91.0518V94.3358H76.876V91.0518H73.5747Z" fill="white"/>
<path d="M80.8723 93.679V91.7086H82.8531V93.679H80.8723ZM83.5133 94.3358V91.0518H80.212V94.3358H83.5133Z" fill="white"/>
<path d="M94.0774 91.0518V93.3333L96.0582 91.0518H96.7185V94.3358H96.0582V92.0198L94.0774 94.3358H93.4172V91.0518H94.0774Z" fill="white"/>
<path d="M107.943 93.0222L108.325 92.0198L108.707 93.0222H107.943ZM108.951 93.679L109.194 94.3358H109.958L108.638 91.0518H107.978L106.657 94.3358H107.422L107.665 93.679H108.951Z" fill="white"/>
<path d="M113.26 94.3358V91.0518H116.561V93.0222H114.267V92.3654H115.901V91.7086H113.92V94.3358H113.26Z" fill="white"/>
<path d="M119.897 94.3358H120.696L121.53 93.2642L122.364 94.3358H123.198L121.947 92.7111L123.198 91.0518H122.364L121.53 92.158L120.696 91.0518H119.897L121.113 92.7111L119.897 94.3358Z" fill="white"/>
<path d="M127.16 91.0518V93.3333L129.141 91.0518H129.801V94.3358H129.141V92.0198L127.16 94.3358H126.5V91.0518H127.16Z" fill="white"/>
<path d="M133.102 91.7086H134.423V94.3358H135.083V91.7086H136.403V91.0518H133.102V91.7086Z" fill="white"/>
<path d="M140.712 92.3654H143.041V93.0222H140.712V92.3654ZM139.705 91.0518H143.006V91.7086H140.365V93.679H143.006V94.3358H139.705V91.0518Z" fill="white"/>
<path d="M147.002 94.3358V93.0222L148.67 94.3358H149.643L147.663 92.7457L149.643 91.0518H148.67L147.002 92.3654V91.0518H146.342V94.3358H147.002Z" fill="white"/>
<path d="M152.945 91.7086H154.265V94.3358H154.925V91.7086H156.246V91.0518H152.945V91.7086Z" fill="white"/>
<path d="M166.185 94.3358V91.0518H169.486V93.0222H167.158V92.3654H168.826V91.7086H166.845V94.3358H166.185Z" fill="white"/>
<path d="M174.038 93.0222L174.42 92.0198L174.803 93.0222H174.038ZM175.081 93.679L175.324 94.3358H176.088L174.768 91.0518H174.108L172.787 94.3358H173.552L173.795 93.679H175.081Z" fill="white"/>
<path d="M160.277 91.0518H159.617V93.0222H161.945V92.3654H160.277V91.7086V91.0518ZM162.918 94.3358V92.6765V91.0173H162.258V91.6741V92.3309V92.6765V93.6444H160.277H159.617V94.3012H162.258H162.918V94.3358Z" fill="white"/>
</svg>
