<svg width="35" height="35" viewBox="0 0 35 35" fill="none" xmlns="http://www.w3.org/2000/svg">
<path d="M21.9482 7.29168C23.3726 7.56958 24.6816 8.26622 25.7078 9.29242C26.734 10.3186 27.4307 11.6277 27.7086 13.0521M21.9482 1.45834C24.9075 1.7871 27.6672 3.11235 29.7739 5.21648C31.8807 7.32061 33.2094 10.0786 33.5419 13.0375M32.0836 24.675V29.05C32.0852 29.4562 32.002 29.8582 31.8393 30.2303C31.6766 30.6024 31.438 30.9365 31.1387 31.2111C30.8394 31.4856 30.4861 31.6947 30.1013 31.8248C29.7166 31.9549 29.3089 32.0032 28.9044 31.9667C24.4169 31.4791 20.1063 29.9456 16.319 27.4896C12.7954 25.2506 9.80803 22.2632 7.569 18.7396C5.10438 14.9351 3.5706 10.6035 3.09191 6.09584C3.05547 5.69257 3.1034 5.28612 3.23264 4.90238C3.36189 4.51864 3.56962 4.16602 3.84262 3.86696C4.11561 3.5679 4.44788 3.32896 4.81828 3.16535C5.18867 3.00175 5.58908 2.91706 5.994 2.91668H10.369C11.0767 2.90971 11.7629 3.16033 12.2995 3.62183C12.8361 4.08332 13.1866 4.7242 13.2857 5.42501C13.4703 6.82511 13.8128 8.19982 14.3065 9.52293C14.5027 10.0449 14.5452 10.6122 14.4289 11.1575C14.3126 11.7029 14.0423 12.2035 13.6502 12.6L11.7982 14.4521C13.8742 18.1031 16.8972 21.1261 20.5482 23.2021L22.4002 21.35C22.7968 20.9579 23.2973 20.6877 23.8427 20.5714C24.3881 20.4551 24.9554 20.4976 25.4773 20.6938C26.8004 21.1875 28.1752 21.5299 29.5753 21.7146C30.2837 21.8145 30.9306 22.1714 31.3931 22.7172C31.8556 23.263 32.1013 23.9598 32.0836 24.675Z" stroke="#464A50" stroke-width="2" stroke-linecap="round" stroke-linejoin="round"/>
</svg>
