<svg width="35" height="35" viewBox="0 0 35 35" fill="none" xmlns="http://www.w3.org/2000/svg">
<path fill-rule="evenodd" clip-rule="evenodd" d="M14.7286 11.6437C14.4627 10.963 14.1555 11.0116 13.951 11.0042C13.7464 10.9969 13.5672 11.0005 13.2907 11.0048C13.0567 11.0085 12.6735 11.0665 12.3393 11.3903C12.0048 11.7136 11.0673 12.4911 11.0025 14.1389C10.9381 15.7864 12.1317 17.4236 12.2984 17.6527C12.465 17.8827 14.5777 21.4539 18.0894 22.9227C21.6014 24.391 21.6198 23.9434 22.264 23.9106C22.9089 23.8781 24.3704 23.1745 24.6935 22.4034C25.0166 21.6324 25.0425 20.962 24.9603 20.819C24.8781 20.6765 24.648 20.5839 24.3039 20.4042C23.9594 20.2242 22.2681 19.3524 21.9509 19.2291C21.6336 19.1062 21.4021 19.0422 21.1551 19.3691C20.908 19.695 20.2063 20.4252 19.9936 20.6415C19.78 20.8579 19.5745 20.878 19.23 20.6974C18.8865 20.5178 17.7702 20.1235 16.4758 18.9351C15.4686 18.0106 14.8075 16.8888 14.6159 16.5465C14.4242 16.2041 14.6147 16.0293 14.797 15.8691C14.9605 15.7245 15.1628 15.4904 15.3462 15.3012C15.5285 15.1119 15.5928 14.9748 15.7185 14.7552C15.8438 14.5361 15.7934 14.3385 15.7121 14.1678C15.6307 13.9972 14.9945 12.3243 14.7286 11.6437Z" fill="#464A50"/>
<path d="M6.29341 25.8001L6.98977 26.0786L7.1342 25.7176L6.92232 25.3915L6.29341 25.8001ZM4 31.5336L3.30364 31.2551L2.70307 32.7565L4.23717 32.2451L4 31.5336ZM9.90469 29.5654L10.3378 28.9531L10.0277 28.7338L9.66752 28.8539L9.90469 29.5654ZM30.3167 18C30.3167 25.3419 24.5696 31.25 17.5333 31.25V32.75C25.4456 32.75 31.8167 26.122 31.8167 18H30.3167ZM17.5333 4.75C24.5696 4.75 30.3167 10.6581 30.3167 18H31.8167C31.8167 9.87797 25.4456 3.25 17.5333 3.25V4.75ZM4.75 18C4.75 10.6581 10.4971 4.75 17.5333 4.75V3.25C9.6211 3.25 3.25 9.87797 3.25 18H4.75ZM6.92232 25.3915C5.55145 23.2816 4.75 20.7397 4.75 18H3.25C3.25 21.0356 4.13876 23.8605 5.66451 26.2087L6.92232 25.3915ZM4.69636 31.8122L6.98977 26.0786L5.59706 25.5216L3.30364 31.2551L4.69636 31.8122ZM9.66752 28.8539L3.76283 30.8221L4.23717 32.2451L10.1419 30.2769L9.66752 28.8539ZM17.5333 31.25C14.8654 31.25 12.3887 30.4036 10.3378 28.9531L9.47162 30.1777C11.7647 31.7995 14.5418 32.75 17.5333 32.75V31.25Z" fill="#464A50"/>
</svg>
